<svg version="1.1" id="Layer_1" xmlns="http://www.w3.org/2000/svg" xmlns:xlink="http://www.w3.org/1999/xlink" x="0px" y="0px"
	 width="100%" viewBox="0 0 512 512" enable-background="new 0 0 512 512" xml:space="preserve">
<path fill="#FFFFFF" opacity="1.000000" stroke="none" 
	d="
M137.023956,346.014008 
	C114.491440,345.295074 93.008629,342.007019 73.702507,330.463379 
	C47.969921,315.077179 35.872730,291.923218 36.145840,262.196167 
	C36.178097,258.685059 35.140377,256.739746 32.288124,254.935791 
	C25.389782,250.572845 18.691158,245.894516 11.902288,241.357895 
	C8.488832,239.076843 6.171196,236.216660 6.925479,231.804764 
	C7.676386,227.412582 10.753480,225.479874 14.748635,224.413910 
	C23.277946,222.138107 31.777082,219.749435 40.293522,217.425110 
	C42.420265,216.844650 44.368385,216.127731 45.575680,214.028305 
	C58.599998,191.379547 79.480278,179.540756 103.760658,173.383560 
	C140.818054,163.986298 176.198044,168.033295 208.579224,189.600555 
	C220.057404,197.245514 228.521149,207.599777 234.212402,220.268188 
	C236.921570,226.298721 236.701248,232.947464 238.805893,239.673233 
	C250.848480,236.244858 262.779999,235.107681 274.281372,239.394012 
	C276.165924,238.445679 276.119354,236.920364 276.251740,235.705292 
	C278.864807,211.723267 292.979980,195.381180 313.110931,184.812180 
	C357.063843,161.736252 401.094360,162.743866 443.964478,188.294312 
	C454.085144,194.326202 462.118195,202.924561 467.873199,213.361816 
	C469.329803,216.003525 471.530243,216.991119 474.200073,217.690796 
	C482.739746,219.928741 491.240204,222.316742 499.783600,224.539932 
	C503.703278,225.559937 506.384399,227.743301 507.111572,231.802368 
	C507.853821,235.945786 505.748657,238.884155 502.515167,241.077728 
	C495.482452,245.848633 488.411469,250.564301 481.306427,255.226883 
	C479.088104,256.682648 477.715210,258.190155 477.785278,261.222351 
	C478.657562,298.962097 457.196869,328.096069 420.740631,339.258575 
	C398.856537,345.959229 376.681427,346.885193 354.020172,344.565399 
	C333.457336,342.460449 315.855957,334.595642 300.917358,320.582642 
	C286.328949,306.898193 278.795288,289.555908 275.741486,270.106689 
	C274.475037,262.040924 270.512787,257.612335 262.372589,256.443512 
	C258.901123,255.945068 255.379318,255.990677 251.913818,256.634216 
	C241.204926,258.622894 239.974152,260.054779 238.241135,270.691620 
	C231.744080,310.569366 205.621033,335.951874 167.352982,343.808929 
	C157.660400,345.798981 147.466125,345.345490 137.023956,346.014008 
M410.839508,191.681854 
	C383.882935,183.631622 357.186371,184.238251 331.205261,195.226532 
	C313.779205,202.596542 299.111420,213.362885 294.738983,233.317184 
	C292.091980,245.397141 291.778687,257.531647 293.859314,269.966309 
	C298.413361,297.183258 313.587494,315.984467 339.503937,323.383240 
	C368.213623,331.579468 397.546173,330.904877 425.484467,318.405640 
	C438.774445,312.459900 449.034454,302.957489 455.296173,289.453583 
	C459.640106,280.085510 460.687317,270.232971 459.831421,260.186279 
	C459.148132,252.165955 461.442444,246.278168 468.901672,242.496582 
	C471.527100,241.165619 474.396942,239.659760 476.234528,236.755173 
	C475.273224,236.301498 474.700592,235.847397 474.078735,235.765060 
	C462.858368,234.279510 454.479370,229.016251 450.234680,218.098953 
	C449.887695,217.206604 449.059235,216.495483 448.430695,215.719437 
	C438.749359,203.766418 425.816254,196.853775 410.839508,191.681854 
M96.608139,194.107727 
	C81.322685,200.417297 67.848969,209.021347 60.155613,224.353134 
	C57.595890,229.454269 53.817398,232.148575 48.495350,233.519577 
	C44.927860,234.438629 41.054333,234.717468 37.349644,237.291870 
	C40.011871,239.098068 42.056313,240.866333 44.405048,242.009247 
	C52.379288,245.889572 55.050022,252.055466 54.189819,260.779175 
	C53.303318,269.769653 54.299629,278.722473 57.830513,287.252228 
	C65.646248,306.133118 80.612892,316.662354 99.308647,322.698822 
	C120.233727,329.455109 141.611206,328.946716 163.102844,326.233582 
	C179.531815,324.159546 193.182846,316.701721 204.112427,304.534393 
	C219.263489,287.667450 222.463516,267.339996 221.235931,245.413330 
	C219.931427,222.112457 207.739853,206.946823 187.609009,197.437546 
	C158.126419,183.510788 127.905357,182.866959 96.608139,194.107727 
z"/>
<path fill="#FFFFFF" opacity="1.000000" stroke="none" 
	d="
M406.409515,256.950012 
	C407.893005,264.782898 404.243500,269.512817 396.637268,270.169830 
	C387.166382,270.987885 387.171051,270.987518 387.940216,280.765564 
	C388.110382,282.928650 388.169128,285.079559 387.377136,287.172516 
	C385.682007,291.652283 381.625458,294.076477 376.654907,293.361328 
	C371.905029,292.677887 369.383148,289.724823 368.703339,285.076569 
	C368.631439,284.584930 368.659088,284.079529 368.622467,283.581848 
	C367.774628,272.061066 367.774170,272.061127 356.576843,271.242798 
	C351.018372,270.836578 347.130310,266.982483 346.917572,261.667908 
	C346.716156,256.636322 350.688263,252.402832 356.208008,251.766205 
	C366.809906,250.543396 366.807709,250.543427 366.735870,239.928436 
	C366.727966,238.764236 366.666931,237.589188 366.793793,236.437180 
	C367.382080,231.095932 371.291962,227.381104 376.306549,227.328003 
	C380.991730,227.278366 385.228058,230.801025 385.982605,235.766251 
	C386.404633,238.543442 386.290253,241.406647 386.356445,244.232529 
	C386.509094,250.753265 386.493988,250.754517 393.214142,250.723801 
	C394.212524,250.719238 395.211517,250.720474 396.209106,250.686447 
	C400.808655,250.529465 404.289337,252.269775 406.409515,256.950012 
z"/>
<path fill="#FFFFFF" opacity="1.000000" stroke="none" 
	d="
M125.873398,246.664078 
	C125.813599,243.216858 125.620140,240.218063 125.747787,237.233002 
	C125.993088,231.496613 129.787674,227.581909 135.013580,227.437897 
	C140.255997,227.293427 144.481750,230.951447 145.101807,236.492279 
	C145.433365,239.454971 145.517685,242.487045 145.306244,245.458801 
	C145.003601,249.712189 146.902390,251.159409 150.899490,250.756104 
	C152.711044,250.573318 154.558792,250.625778 156.383041,250.715561 
	C161.796539,250.982010 165.581665,254.535477 166.026642,259.678070 
	C166.424866,264.280457 163.146606,268.650665 158.136368,269.708740 
	C155.726715,270.217621 153.184006,270.265289 150.705063,270.235016 
	C147.499451,270.195923 146.094131,271.567413 146.397522,274.760345 
	C146.648972,277.406372 146.975632,280.056122 147.022018,282.708557 
	C147.131226,288.952240 143.318237,293.279114 137.719925,293.461639 
	C131.681381,293.658508 128.094666,290.186035 127.611473,283.673981 
	C127.599174,283.508270 127.603043,283.341370 127.591187,283.175598 
	C126.788185,271.948059 126.788109,271.948090 115.671143,271.250916 
	C110.116371,270.902527 106.022484,266.959106 105.897621,261.836578 
	C105.769661,256.586700 109.516243,252.398285 115.042664,251.806305 
	C117.184166,251.576904 119.363121,251.601212 121.521790,251.650574 
	C124.683884,251.722885 126.172424,250.306793 125.873398,246.664078 
z"/>
</svg>